REM DIRINDEX 1\2,1\4,1\5,1\6,1\7,1\3\8,1\3\9,1\3\10
REM DIRNAME cjc113,folder01,folder02,folder03,folder04,folder05,folder06,folder07,folder08,folder09
TITLE ""
FILE "DB4500_5th_3B_03.mp3" MP3
  TRACK 01 AUDIO
    TITLE "8:cjc113_1901"
    INDEX 01 00:00:00
  TRACK 02 AUDIO
    TITLE "0:"
    INDEX 01 00:01:05
  TRACK 03 AUDIO
    TITLE "9:cjc113_1902"
    INDEX 01 00:01:26
  TRACK 04 AUDIO
    TITLE "0:"
    INDEX 01 00:02:14
  TRACK 05 AUDIO
    TITLE "10:cjc113_1903"
    INDEX 01 00:02:34
  TRACK 06 AUDIO
    TITLE "0:"
    INDEX 01 00:05:18
  TRACK 07 AUDIO
    TITLE "8:cjc113_1904"
    INDEX 01 00:05:59
  TRACK 08 AUDIO
    TITLE "0:"
    INDEX 01 00:06:65
  TRACK 09 AUDIO
    TITLE "9:cjc113_1905"
    INDEX 01 00:07:09
  TRACK 10 AUDIO
    TITLE "0:"
    INDEX 01 00:08:07
  TRACK 11 AUDIO
    TITLE "10:cjc113_1906"
    INDEX 01 00:08:30
  TRACK 12 AUDIO
    TITLE "0:"
    INDEX 01 00:11:25
  TRACK 13 AUDIO
    TITLE "8:cjc113_1907"
    INDEX 01 00:11:68
  TRACK 14 AUDIO
    TITLE "0:"
    INDEX 01 00:13:02
  TRACK 15 AUDIO
    TITLE "9:cjc113_1908"
    INDEX 01 00:13:22
  TRACK 16 AUDIO
    TITLE "0:"
    INDEX 01 00:14:47
  TRACK 17 AUDIO
    TITLE "10:cjc113_1909"
    INDEX 01 00:14:68
  TRACK 18 AUDIO
    TITLE "0:"
    INDEX 01 00:17:74
  TRACK 19 AUDIO
    TITLE "8:cjc113_1910"
    INDEX 01 00:18:42
  TRACK 20 AUDIO
    TITLE "0:"
    INDEX 01 00:19:73
  TRACK 21 AUDIO
    TITLE "9:cjc113_1911"
    INDEX 01 00:20:18
  TRACK 22 AUDIO
    TITLE "0:"
    INDEX 01 00:21:29
  TRACK 23 AUDIO
    TITLE "10:cjc113_1912"
    INDEX 01 00:21:53
  TRACK 24 AUDIO
    TITLE "0:"
    INDEX 01 00:24:53
  TRACK 25 AUDIO
    TITLE "8:cjc113_1913"
    INDEX 01 00:25:19
  TRACK 26 AUDIO
    TITLE "0:"
    INDEX 01 00:26:38
  TRACK 27 AUDIO
    TITLE "9:cjc113_1914"
    INDEX 01 00:26:58
  TRACK 28 AUDIO
    TITLE "0:"
    INDEX 01 00:27:61
  TRACK 29 AUDIO
    TITLE "10:cjc113_1915"
    INDEX 01 00:28:08
  TRACK 30 AUDIO
    TITLE "0:"
    INDEX 01 00:31:53
  TRACK 31 AUDIO
    TITLE "8:cjc113_1916"
    INDEX 01 00:32:19
  TRACK 32 AUDIO
    TITLE "0:"
    INDEX 01 00:33:26
  TRACK 33 AUDIO
    TITLE "9:cjc113_1917"
    INDEX 01 00:33:48
  TRACK 34 AUDIO
    TITLE "0:"
    INDEX 01 00:34:59
  TRACK 35 AUDIO
    TITLE "10:cjc113_1918"
    INDEX 01 00:35:02
  TRACK 36 AUDIO
    TITLE "0:"
    INDEX 01 00:37:59
  TRACK 37 AUDIO
    TITLE "8:cjc113_1919"
    INDEX 01 00:38:30
  TRACK 38 AUDIO
    TITLE "0:"
    INDEX 01 00:39:35
  TRACK 39 AUDIO
    TITLE "9:cjc113_1920"
    INDEX 01 00:39:54
  TRACK 40 AUDIO
    TITLE "0:"
    INDEX 01 00:40:68
  TRACK 41 AUDIO
    TITLE "10:cjc113_1921"
    INDEX 01 00:41:14
  TRACK 42 AUDIO
    TITLE "0:"
    INDEX 01 00:43:74
  TRACK 43 AUDIO
    TITLE "8:cjc113_1922"
    INDEX 01 00:44:42
  TRACK 44 AUDIO
    TITLE "0:"
    INDEX 01 00:45:53
  TRACK 45 AUDIO
    TITLE "9:cjc113_1923"
    INDEX 01 00:46:00
  TRACK 46 AUDIO
    TITLE "0:"
    INDEX 01 00:47:32
  TRACK 47 AUDIO
    TITLE "10:cjc113_1924"
    INDEX 01 00:47:52
  TRACK 48 AUDIO
    TITLE "0:"
    INDEX 01 00:50:29
  TRACK 49 AUDIO
    TITLE "8:cjc113_1925"
    INDEX 01 00:50:72
  TRACK 50 AUDIO
    TITLE "0:"
    INDEX 01 00:52:20
  TRACK 51 AUDIO
    TITLE "9:cjc113_1926"
    INDEX 01 00:52:39
  TRACK 52 AUDIO
    TITLE "0:"
    INDEX 01 00:53:70
  TRACK 53 AUDIO
    TITLE "10:cjc113_1927"
    INDEX 01 00:54:15
  TRACK 54 AUDIO
    TITLE "0:"
    INDEX 01 00:56:74
  TRACK 55 AUDIO
    TITLE "8:cjc113_1928"
    INDEX 01 00:57:45
  TRACK 56 AUDIO
    TITLE "0:"
    INDEX 01 00:58:58
  TRACK 57 AUDIO
    TITLE "9:cjc113_1929"
    INDEX 01 00:59:02
  TRACK 58 AUDIO
    TITLE "0:"
    INDEX 01 01:00:29
  TRACK 59 AUDIO
    TITLE "10:cjc113_1930"
    INDEX 01 01:00:49
  TRACK 60 AUDIO
    TITLE "0:"
    INDEX 01 01:04:03
  TRACK 61 AUDIO
    TITLE "8:cjc113_1931"
    INDEX 01 01:04:45
  TRACK 62 AUDIO
    TITLE "0:"
    INDEX 01 01:05:62
  TRACK 63 AUDIO
    TITLE "9:cjc113_1932"
    INDEX 01 01:06:06
  TRACK 64 AUDIO
    TITLE "0:"
    INDEX 01 01:08:42
  TRACK 65 AUDIO
    TITLE "10:cjc113_1933"
    INDEX 01 01:08:62
  TRACK 66 AUDIO
    TITLE "0:"
    INDEX 01 01:11:21
  TRACK 67 AUDIO
    TITLE "8:cjc113_1934"
    INDEX 01 01:11:62
  TRACK 68 AUDIO
    TITLE "0:"
    INDEX 01 01:13:22
  TRACK 69 AUDIO
    TITLE "9:cjc113_1935"
    INDEX 01 01:13:42
  TRACK 70 AUDIO
    TITLE "0:"
    INDEX 01 01:16:22
  TRACK 71 AUDIO
    TITLE "10:cjc113_1936"
    INDEX 01 01:16:42
  TRACK 72 AUDIO
    TITLE "0:"
    INDEX 01 01:20:65
  TRACK 73 AUDIO
    TITLE "8:cjc113_1937"
    INDEX 01 01:21:31
  TRACK 74 AUDIO
    TITLE "0:"
    INDEX 01 01:22:50
  TRACK 75 AUDIO
    TITLE "9:cjc113_1938"
    INDEX 01 01:22:70
  TRACK 76 AUDIO
    TITLE "0:"
    INDEX 01 01:25:62
  TRACK 77 AUDIO
    TITLE "10:cjc113_1939"
    INDEX 01 01:26:07
  TRACK 78 AUDIO
    TITLE "0:"
    INDEX 01 01:28:41
  TRACK 79 AUDIO
    TITLE "8:cjc113_1940"
    INDEX 01 01:29:05
  TRACK 80 AUDIO
    TITLE "0:"
    INDEX 01 01:30:30
  TRACK 81 AUDIO
    TITLE "9:cjc113_1941"
    INDEX 01 01:30:52
  TRACK 82 AUDIO
    TITLE "0:"
    INDEX 01 01:33:52
  TRACK 83 AUDIO
    TITLE "10:cjc113_1942"
    INDEX 01 01:33:74
  TRACK 84 AUDIO
    TITLE "0:"
    INDEX 01 01:36:41
